<svg width="17" height="16" viewBox="0 0 17 16" fill="none" xmlns="http://www.w3.org/2000/svg">
<path opacity="0.4" fill-rule="evenodd" clip-rule="evenodd" d="M8.77466 13.6334C8.55945 14.6983 7.62301 15.4999 6.49999 15.4999C5.37696 15.4999 4.44052 14.6983 4.2254 13.6334H0L1.8571 9.89998V6.16659C1.8571 3.58932 3.93584 1.49997 6.49999 1.49997C9.06421 1.49997 11.1429 3.58932 11.1429 6.16659V9.89998L13 13.6334H8.77466ZM6.49999 14.5667C7.10557 14.5667 7.61566 14.1759 7.8076 13.6334H5.19246C5.38431 14.1759 5.89441 14.5667 6.49999 14.5667ZM10.2143 9.89998V6.16659C10.2143 4.10488 8.55135 2.43333 6.49999 2.43333C4.44861 2.43333 2.7857 4.10488 2.7857 6.16659V9.89998L1.39281 12.7H11.6071L10.2143 9.89998Z" fill="black"/>
<path fill-rule="evenodd" clip-rule="evenodd" d="M14 0.50001C15.1046 0.50001 16 1.39542 16 2.50001C16 3.60455 15.1046 4.50001 14 4.50001C12.8954 4.50001 12 3.60455 12 2.50001C12 1.39542 12.8954 0.50001 14 0.50001Z" fill="#FD4948"/>
</svg>
