<svg width="10" height="14" viewBox="0 0 10 14" fill="none" xmlns="http://www.w3.org/2000/svg">
<path opacity="0.4" fill-rule="evenodd" clip-rule="evenodd" d="M7.40906 13.5H3.09087C1.66002 13.5 0.500031 12.4087 0.500031 11.0625V9.43749C0.500031 8.37038 1.2336 7.47321 2.24856 7.14305C1.69573 6.44133 1.36361 5.54249 1.36361 4.56255C1.36361 2.31884 3.10364 0.499939 5.25005 0.499939C7.39638 0.499939 9.13632 2.31884 9.13632 4.56255C9.13632 5.54249 8.80421 6.44133 8.25146 7.14305C9.26642 7.47321 9.99999 8.37038 9.99999 9.43749V11.0625C9.99999 12.4087 8.84 13.5 7.40906 13.5ZM8.27273 4.56255C8.27273 2.76755 6.91948 1.31247 5.25005 1.31247C3.58063 1.31247 2.22736 2.76755 2.22736 4.56255C2.22736 6.35741 3.58063 7.81248 5.25005 7.81248C6.91948 7.81248 8.27273 6.35741 8.27273 4.56255ZM9.13632 9.64067C9.13632 8.77707 8.43971 8.05752 7.50595 7.86621C6.8695 8.34206 6.09219 8.62496 5.25005 8.62496C4.40791 8.62496 3.63052 8.34206 2.99407 7.86621C2.06039 8.05752 1.36361 8.77707 1.36361 9.64067V10.8594C1.36361 11.869 2.31273 12.6876 3.48349 12.6876H7.01653C8.18736 12.6876 9.13632 11.869 9.13632 10.8594V9.64067Z" fill="black"/>
</svg>
