<svg width="14" height="20" viewBox="0 0 14 20" fill="none" xmlns="http://www.w3.org/2000/svg">
<path opacity="0.4" fill-rule="evenodd" clip-rule="evenodd" d="M5.52281 20C5.18384 20 4.90905 19.7202 4.90905 19.375C4.90905 19.0299 5.18384 18.7501 5.52281 18.7501H6.13639V17.472C3.1067 17.1935 0.541633 14.8741 -3.05176e-05 11.8749H1.22731C1.78589 14.3791 4.12232 16.2499 6.75005 16.2499C9.3777 16.2499 11.7141 14.3791 12.2727 11.8749H13.5C12.9583 14.8741 10.3932 17.1935 7.36363 17.472V18.7501H7.97729C8.31617 18.7501 8.59097 19.0299 8.59097 19.375C8.59097 19.7202 8.31617 20 7.97729 20H5.52281ZM6.75005 15.0001C4.37767 15.0001 2.45455 13.0413 2.45455 10.6251V4.37517C2.45455 1.95889 4.37767 -6.10352e-05 6.75005 -6.10352e-05C9.12226 -6.10352e-05 11.0455 1.95889 11.0455 4.37517V10.6251C11.0455 13.0413 9.12226 15.0001 6.75005 15.0001ZM9.81821 4.37517C9.81821 2.64926 8.44451 1.24997 6.75005 1.24997C5.0555 1.24997 3.68181 2.64926 3.68181 4.37517V10.6251C3.68181 12.351 5.0555 13.75 6.75005 13.75C8.44451 13.75 9.81821 12.351 9.81821 10.6251V4.37517Z" fill="black"/>
</svg>
